<svg width="233" height="234" viewBox="0 0 233 234" fill="none" xmlns="http://www.w3.org/2000/svg">
<path d="M144.864 190.633C142.032 196.492 137.93 200.984 132.559 204.109C127.579 207.137 122.208 208.602 116.348 208.602C110.587 208.602 105.216 207.137 100.235 204.207C95.0593 201.082 91.0554 196.687 88.2233 191.121C88.2233 191.219 80.8991 176.473 66.2507 146.883C71.4264 150.496 78.0671 150.398 86.0749 146.687C94.3757 142.879 100.723 136.629 105.216 127.937L116.446 106.16C137.833 62.9961 148.673 41.0234 149.161 40.2422C153.36 33.4062 159.415 28.9141 167.227 26.668C175.04 24.4219 182.559 25.1055 189.883 28.7187C197.403 32.4297 202.579 38.1914 205.411 46.0039C208.243 53.7187 208.145 61.4336 204.923 69.0508C203.458 72.4688 183.438 112.996 144.864 190.633ZM175.919 17C168.985 17 162.54 18.6602 156.485 22.0781C150.43 25.4961 145.548 30.0859 141.934 35.8477L116.446 87.1172C99.9421 53.8164 91.3483 36.7266 90.86 35.8477C87.2468 30.0859 82.4616 25.4961 76.3093 22.0781C70.2546 18.6602 63.8093 17 56.9733 17C50.7233 17 44.7663 18.3672 39.1999 21.1992C29.8249 25.8867 23.2819 33.2109 19.571 43.0742C15.9577 52.9375 16.153 62.7031 20.1569 72.3711C21.7194 75.9844 41.739 116.512 80.2155 193.953L80.7038 194.93C80.6061 194.734 80.6061 194.734 80.7038 194.93C84.1218 201.766 89.0046 207.137 95.3522 211.043C101.798 215.047 108.829 217 116.446 217C124.161 217 131.29 215.047 137.637 211.043C143.985 207.039 148.868 201.473 152.383 194.344L152.676 193.855C191.153 116.414 211.173 75.8867 212.637 72.3711C216.739 62.7031 216.934 52.9375 213.223 43.0742C209.61 33.211 203.067 25.8867 193.692 21.1992C188.126 18.3672 182.169 17 175.919 17Z" fill="black"/>
<style>
  path {
    fill: #37352F;
  }

  @media (prefers-color-scheme: dark) {
    path {
      fill: white;
    }
  }
</style>
</svg>
