<svg width="15" height="15" viewBox="0 0 15 15" fill="none" xmlns="http://www.w3.org/2000/svg">
<path d="M9.63228 13.0225C9.41988 13.4619 9.11226 13.7988 8.70943 14.0332C8.33589 14.2603 7.93306 14.3701 7.49361 14.3701C7.06148 14.3701 6.65864 14.2603 6.28511 14.0405C5.89693 13.8062 5.59663 13.4766 5.38423 13.0591C5.38423 13.0664 4.83491 11.9604 3.73628 9.74121C4.12446 10.0122 4.62251 10.0049 5.2231 9.72656C5.84566 9.44092 6.32173 8.97217 6.65864 8.32031L7.50093 6.68701C9.10493 3.44971 9.91792 1.80176 9.95454 1.74316C10.2695 1.23047 10.7236 0.893555 11.3095 0.725098C11.8955 0.556641 12.4594 0.60791 13.0087 0.878906C13.5727 1.15723 13.9609 1.58936 14.1733 2.17529C14.3857 2.75391 14.3784 3.33252 14.1367 3.90381C14.0268 4.16016 12.5253 7.19971 9.63228 13.0225ZM11.9614 0C11.4414 0 10.958 0.124512 10.5039 0.38086C10.0498 0.637207 9.68355 0.981445 9.41255 1.41357L7.50093 5.25879C6.26314 2.76123 5.61861 1.47949 5.58198 1.41357C5.31099 0.981445 4.9521 0.637207 4.49068 0.38086C4.03657 0.124512 3.55318 7.5e-07 3.04048 7.5e-07C2.57173 7.5e-07 2.12495 0.10254 1.70747 0.314942C1.00435 0.666505 0.513625 1.21582 0.235305 1.95557C-0.0356914 2.69531 -0.0210432 3.42774 0.27925 4.15283C0.396438 4.42383 1.8979 7.46338 4.78364 13.2715L4.82027 13.3447C4.81294 13.3301 4.81294 13.3301 4.82027 13.3447C5.07661 13.8574 5.44282 14.2603 5.9189 14.5532C6.4023 14.8535 6.92964 15 7.50093 15C8.07954 15 8.61421 14.8535 9.09029 14.5532C9.56636 14.2529 9.93257 13.8354 10.1962 13.3008L10.2182 13.2642C13.104 7.45606 14.6054 4.4165 14.7153 4.15283C15.0229 3.42774 15.0376 2.69531 14.7592 1.95557C14.4882 1.21582 13.9975 0.666505 13.2944 0.314943C12.8769 0.102541 12.4301 0 11.9614 0Z" fill="black"/>
<style>
  path {
    fill: #37352F;
  }

  @media (prefers-color-scheme: dark) {
    path {
      fill: white;
    }
  }
</style>
</svg>
