<svg width="200" height="200" viewBox="0 0 200 200" fill="none" xmlns="http://www.w3.org/2000/svg">
<path d="M128.43 173.633C125.598 179.492 121.497 183.984 116.126 187.109C111.145 190.137 105.774 191.602 99.9146 191.602C94.1529 191.602 88.7818 190.137 83.8013 187.207C78.6256 184.082 74.6216 179.688 71.7896 174.121C71.7896 174.219 64.4654 159.473 49.817 129.883C54.9927 133.496 61.6334 133.398 69.6412 129.688C77.9419 125.879 84.2896 119.629 88.7818 110.938L100.012 89.1602C121.399 45.9961 132.239 24.0234 132.727 23.2422C136.926 16.4062 142.981 11.9141 150.794 9.66797C158.606 7.42188 166.126 8.10547 173.45 11.7188C180.969 15.4297 186.145 21.1914 188.977 29.0039C191.809 36.7188 191.711 44.4336 188.489 52.0508C187.024 55.4688 167.004 95.9961 128.43 173.633ZM159.485 0C152.551 0 146.106 1.66016 140.051 5.07813C133.997 8.4961 129.114 13.0859 125.501 18.8477L100.012 70.1172C83.5084 36.8164 74.9146 19.7266 74.4263 18.8477C70.8131 13.0859 66.0279 8.4961 59.8756 5.07813C53.8209 1.66016 47.3756 1e-05 40.5396 1e-05C34.2896 1e-05 28.3326 1.3672 22.7662 4.19923C13.3912 8.88673 6.84821 16.2109 3.13727 26.0742C-0.476007 35.9375 -0.280698 45.7031 3.72321 55.3711C5.28571 58.9844 25.3052 99.5117 63.7818 176.953L64.2701 177.93C64.1724 177.734 64.1724 177.734 64.2701 177.93C67.6881 184.766 72.5709 190.137 78.9185 194.043C85.3638 198.047 92.3951 200 100.012 200C107.727 200 114.856 198.047 121.204 194.043C127.551 190.039 132.434 184.473 135.95 177.344L136.243 176.855C174.719 99.4141 194.739 58.8867 196.204 55.3711C200.305 45.7031 200.501 35.9375 196.79 26.0742C193.176 16.211 186.633 8.88674 177.258 4.19924C171.692 1.36721 165.735 0 159.485 0Z" fill="black"/>
<style>
  path {
    fill: #37352F;
  }

  @media (prefers-color-scheme: dark) {
    path {
      fill: white;
    }
  }
</style>
</svg>
